# xmcd CD database file
#
# Track frame offsets:
#	150
#	28456
#	61317
#	77938
#	106199
#	132528
#	165593
#	195844
#	229829
#	254025
#	280550
#	296173
#	324251
#	338296
#
# Disc length: 4687 seconds
#
# Revision: 2
# Processed by: cddbd v1.5.1PL2 Copyright (c) Steve Scherf et al.
# Submitted via: CDex 1.51
#
DISCID=c5124d0e
DTITLE=Aa. Vv. - Jm Traxx vol.09
DYEAR=2006
DGENRE=House
TTITLE0=Joey Negro - Make A Move On Me (Original Club Mix)
TTITLE1=Steve Mac Vs. Mosquito - Livin You More (Freemason Vocal Club Mix)
TTITLE2=Dj Ross Vs. Dy - Beat Goes On (In Da Radio)
TTITLE3=Mnartin Solveig - Jealousy (Album Version)
TTITLE4=Benny Benassi - What´s Your Daddy (Guetta and Garraud Mix)
TTITLE5=Deep Dish Feat. Morel - Sacramento (Raul Rincon Mix)
TTITLE6=Nicola Fasano Feat. Paula B - Been A Long Time (Gabriele D'andrea Mix)
TTITLE7=Praise Cats Shine On Me 2006 (Jerry Ropero and Dennis The Menace Club)
TTITLE8=Francesco Rossi Feat. Mario Bee Break It (Precious Funky Mix)
TTITLE9=Free Drink - Pinacolada (Vocal Mix)
TTITLE10=Garden - Hold On (Radio Edit)
TTITLE11=C and C Family - Everyday Of My Life (Club Mix)
TTITLE12=Wendy Lewis - Whishin For A Miracle (Beatmasters Radio Mix)
TTITLE13=Zed And Stefano Capasso - The Show (Radio Edit)
EXTD=YEAR: 2006
EXTT0=
EXTT1=
EXTT2=
EXTT3=
EXTT4=
EXTT5=
EXTT6=
EXTT7=
EXTT8=
EXTT9=
EXTT10=
EXTT11=
EXTT12=
EXTT13=
PLAYORDER=
